<svg width="512" height="512" viewBox="0 0 512 512" fill="none" xmlns="http://www.w3.org/2000/svg">
<g clip-path="url(#clip0_361_2)">
<path d="M138.667 426.667C106.311 426.667 78.6703 415.467 55.744 393.067C32.8178 370.667 21.3476 343.289 21.3334 310.933C21.3334 283.2 29.6889 258.489 46.4 236.8C63.1112 215.111 84.9778 201.244 112 195.2C120.889 162.489 138.667 136 165.333 115.733C192 95.4666 222.222 85.3333 256 85.3333C297.6 85.3333 332.892 99.8257 361.877 128.811C390.862 157.795 405.348 193.081 405.333 234.667C429.867 237.511 450.226 248.092 466.411 266.411C482.596 284.729 490.681 306.147 490.667 330.667C490.667 357.333 481.337 380.003 462.677 398.677C444.018 417.351 421.348 426.681 394.667 426.667H138.667Z" fill="white"/>
</g>
<defs>
<clipPath id="clip0_361_2">
<rect width="512" height="512" fill="white"/>
</clipPath>
</defs>
</svg>
