<svg width="658" height="136" viewBox="0 0 658 136" fill="none" xmlns="http://www.w3.org/2000/svg">
    <path
        d="M0 107.224V35.4932H53.9243C71.0222 35.4932 77.396 43.081 77.396 53.4005C77.396 61.2919 72.9445 67.1598 65.2554 69.9926C74.2597 72.1172 81.544 77.1757 81.544 87.6976C81.544 99.5346 73.9562 107.224 58.477 107.224H0ZM13.5569 97.1065H54.2278C62.625 97.1065 67.4812 93.869 67.4812 86.18C67.4812 77.8839 61.0062 75.4558 54.2278 75.4558H13.5569V97.1065ZM13.5569 66.7551H50.181C57.4653 66.7551 63.9402 64.2258 63.9402 56.031C63.9402 48.7466 59.084 45.6103 50.181 45.6103H13.5569V66.7551Z"
        fill="#053158" />
    <path d="M87.5417 107.224V26.2866H100.896V107.224H87.5417Z" fill="#053158" />
    <path
        d="M150.036 109.247C124.136 109.247 108.353 97.41 108.353 77.3781C108.353 57.3462 124.439 45.408 149.327 45.408C174.418 45.408 189.695 57.7509 189.695 82.2343H122.821C124.844 92.8573 134.556 98.5229 150.44 98.5229C163.491 98.5229 172.293 94.476 174.924 87.5964H188.784C185.142 101.153 171.889 109.247 150.036 109.247ZM123.023 71.8137H175.227C172.799 60.8872 163.896 56.031 149.429 56.031C134.86 56.031 125.451 61.0895 123.023 71.8137Z"
        fill="#053158" />
    <path
        d="M196.427 107.224V47.4314H210.591V60.3813C218.28 50.7701 230.117 45.408 245.495 45.408C264.717 45.408 276.453 53.1982 276.453 76.7711V107.224H262.289V81.5261C262.289 63.9223 255.41 57.245 239.121 57.245C222.225 57.245 210.591 66.4516 210.591 82.032V107.224H196.427Z"
        fill="#053158" />
    <path
        d="M352.344 107.224V94.6784C346.172 103.885 334.639 109.348 320.272 109.348C298.015 109.348 283.648 96.803 283.648 77.4793C283.648 58.1556 298.015 45.5092 320.272 45.5092C334.639 45.5092 346.172 50.9724 352.344 60.2802V26.2866H365.597V107.224H352.344ZM298.318 77.4793C298.318 89.6198 308.334 97.5112 324.521 97.5112C341.822 97.5112 352.344 89.6198 352.344 77.4793C352.344 65.2375 341.822 57.3462 324.521 57.3462C308.334 57.3462 298.318 65.2375 298.318 77.4793Z"
        fill="#053158" />
    <path fill-rule="evenodd" clip-rule="evenodd"
        d="M416.291 47.6963L417.2 87.8097V87.8779C417.2 91.3299 419.018 95.3146 423.824 99.637C428.629 103.958 435.921 108.126 445.444 111.75C464.45 118.982 491.112 123.584 520.859 123.584C550.607 123.584 577.269 118.987 596.274 111.757C605.797 108.134 613.089 103.967 617.893 99.6458C622.698 95.3235 624.518 91.3362 624.518 87.8779C624.518 84.4196 622.698 80.4324 617.893 76.11C617.422 75.687 616.928 75.2654 616.41 74.8456C611.523 77.8457 605.872 80.5336 599.659 82.8971C578.963 90.77 550.779 95.5129 519.95 95.5129C499.249 95.5129 484.121 94.5308 469.364 91.2071C454.68 87.8998 440.659 82.341 422.097 73.549C421.092 73.1249 419.284 72.0478 418.598 69.6146C417.866 67.0145 419.093 65.0765 419.393 64.6284C419.823 63.9854 420.279 63.5779 420.451 63.4284C420.672 63.2355 420.865 63.0962 420.98 63.0165C421.35 62.7595 421.689 62.5872 421.774 62.5442L421.782 62.5401C422.041 62.4082 422.32 62.2836 422.538 62.1888C423.016 61.9805 423.677 61.71 424.477 61.3943C426.094 60.7565 428.439 59.8725 431.371 58.8269C437.238 56.7346 445.529 53.9696 455.155 51.2106C474.285 45.7273 499.18 40.1215 520.859 40.1215C551.688 40.1215 579.872 44.8643 600.568 52.7373C606.339 54.9327 611.625 57.408 616.265 60.1534C616.511 59.9441 616.75 59.7344 616.984 59.5243C621.789 55.202 623.609 51.2148 623.609 47.7565C623.609 44.2981 621.789 40.3109 616.984 35.9886C612.179 31.6675 604.888 27.5002 595.365 23.8774C576.359 16.6477 549.697 12.0507 519.95 12.0507C490.202 12.0507 463.54 16.6477 444.535 23.8774C435.011 27.5002 427.72 31.6675 422.916 35.9886C418.138 40.2859 416.312 44.2519 416.291 47.6963ZM626.226 67.3904C631.882 61.9284 635.674 55.3144 635.674 47.7565C635.674 39.6891 631.354 32.697 625.057 27.0337C618.76 21.3691 609.986 16.5443 599.659 12.6158C578.963 4.74287 550.779 0 519.95 0C489.12 0 460.936 4.74287 440.24 12.6158C429.913 16.5443 421.14 21.3691 414.842 27.0337C408.545 32.697 404.226 39.6891 404.226 47.7565V47.8246L405.135 87.9513C405.161 95.9842 409.475 102.949 415.751 108.593C422.049 114.256 430.822 119.081 441.149 123.011C461.845 130.886 490.028 135.634 520.859 135.634C551.688 135.634 579.872 130.891 600.568 123.019C610.895 119.09 619.669 114.265 625.967 108.601C632.263 102.937 636.583 95.9453 636.583 87.8779C636.583 79.9219 632.381 73.0117 626.226 67.3904ZM604.644 67.5929C602.083 66.3486 599.29 65.1464 596.274 63.9989C577.269 56.7691 550.607 52.1722 520.859 52.1722C500.894 52.1722 477.299 57.4003 458.483 62.7938C451.489 64.7986 445.223 66.806 440.14 68.5354C452.124 73.7514 461.982 77.1912 472.018 79.4515C485.488 82.4854 499.58 83.4622 519.95 83.4622C549.697 83.4622 576.359 78.8652 595.365 71.6355C598.742 70.3506 601.839 68.9973 604.644 67.5929Z"
        fill="#053158" />
</svg>